<svg
  height="64px"
  width="64px"
  version="1.1"
  id="Layer_1"
  xmlns="http://www.w3.org/2000/svg"
  xmlns:xlink="http://www.w3.org/1999/xlink"
  viewBox="0 0 512 512"
  xml:space="preserve"
  fill="#000000"
>
  <g id="SVGRepo_bgCarrier" stroke-width="0"></g>
  <g
    id="SVGRepo_tracerCarrier"
    stroke-linecap="round"
    stroke-linejoin="round"
  ></g>
  <g id="SVGRepo_iconCarrier">
    <path
      style="fill: #e1eaf6"
      d="M500.799,215.883v108.538c0,17.272-14.001,31.273-31.273,31.273H431.61V215.883L500.799,215.883 L500.799,215.883z"
    ></path>
    <path
      style="fill: #5a5d6f"
      d="M500.799,156.305v59.578H431.61v-28.305c0-17.272-14.001-31.273-31.273-31.273H500.799z"
    ></path>
    <path
      style="fill: #e1eaf6"
      d="M500.799,118.39v37.916H400.337H80.379V118.39c0-17.272,14.001-31.262,31.273-31.262h357.874 C486.798,87.127,500.799,101.118,500.799,118.39z"
    ></path>
    <path
      style="fill: #00b0f2"
      d="M431.61,355.695v37.916c0,17.261-14.001,31.262-31.273,31.262H42.463 c-17.261,0-31.262-14.001-31.262-31.262V187.578c0-17.272,14.001-31.273,31.262-31.273h37.916h319.958 c17.272,0,31.273,14.001,31.273,31.273v28.305V355.695z M376.232,355.695c2.811-4.525,4.2-10.014,3.562-15.861 c-1.277-11.705-10.955-21.024-22.693-21.92c-5.343-0.403-10.35,0.885-14.55,3.394c-3.64,2.162-8.076,2.162-11.716,0 c-4.2-2.509-9.207-3.797-14.55-3.394c-11.739,0.896-21.405,10.215-22.693,21.909c-0.65,5.847,0.75,11.347,3.562,15.872 c4.38,7.045,12.187,11.739,21.08,11.739c4.716,0,9.118-1.333,12.87-3.629c3.405-2.083,7.774-2.083,11.179,0 c3.752,2.296,8.154,3.629,12.881,3.629C364.068,367.434,371.864,362.74,376.232,355.695z M144.55,251.447v-8.334 c0-10.417-8.434-18.863-18.851-18.863H93.932c-10.406,0-18.851,8.446-18.851,18.863v8.334c0,10.417,8.446,18.863,18.851,18.863 h31.766C136.115,270.309,144.55,261.864,144.55,251.447z"
    ></path>
    <path
      style="fill: #ff6464"
      d="M379.794,339.834c0.638,5.847-0.75,11.335-3.562,15.861c-4.368,7.045-12.164,11.739-21.069,11.739 c-4.727,0-9.129-1.333-12.881-3.629c-3.405-2.083-7.774-2.083-11.179,0c-3.752,2.296-8.154,3.629-12.87,3.629 c-8.894,0-16.701-4.693-21.08-11.739c-2.811-4.525-4.212-10.025-3.562-15.872c1.288-11.694,10.955-21.013,22.693-21.909 c5.343-0.403,10.35,0.885,14.55,3.394c3.64,2.162,8.076,2.162,11.716,0c4.2-2.509,9.207-3.797,14.55-3.394 C368.839,318.81,378.517,328.129,379.794,339.834z"
    ></path>
    <path
      style="fill: #ffcd34"
      d="M144.55,243.113v8.334c0,10.417-8.434,18.863-18.851,18.863H93.932 c-10.406,0-18.851-8.446-18.851-18.863v-8.334c0-10.417,8.446-18.863,18.851-18.863h31.766 C136.115,224.251,144.55,232.696,144.55,243.113z"
    ></path>
    <path
      d="M0,187.578v206.032c0,23.415,19.049,42.463,42.463,42.463h357.874c23.42,0,42.474-19.049,42.474-42.463v-26.715h26.715 c23.42,0,42.474-19.054,42.474-42.474V118.39c0-23.415-19.054-42.463-42.474-42.463H111.652c-23.42,0-42.474,19.049-42.474,42.463 v26.715H42.463C19.049,145.104,0,164.158,0,187.578z M489.598,204.682h-46.787v-17.104c0-7.256-1.832-14.091-5.053-20.072h51.84 V204.682z M469.526,344.494h-26.715V227.084h46.787v97.337C489.598,335.489,480.593,344.494,469.526,344.494z M91.58,118.39 c0-11.061,9.005-20.061,20.072-20.061h357.874c11.068,0,20.072,9,20.072,20.061v26.715h-89.261h-16.085 c-6.185,0-11.201,5.015-11.201,11.201c0,6.186,5.016,11.201,11.201,11.201h16.085c11.068,0,20.072,9.005,20.072,20.072v206.032 c0,11.061-9.005,20.061-20.072,20.061H42.463c-11.061,0-20.061-9-20.061-20.061V187.578c0-11.068,8.999-20.072,20.061-20.072 h268.982c6.185,0,11.201-5.015,11.201-11.201c0-6.186-5.016-11.201-11.201-11.201H91.58V118.39z"
    ></path>
    <path
      d="M346.168,167.506h3.92c6.185,0,11.201-5.015,11.201-11.201c0-6.186-5.016-11.201-11.201-11.201h-3.92 c-6.185,0-11.201,5.015-11.201,11.201C334.967,162.491,339.982,167.506,346.168,167.506z"
    ></path>
    <path
      d="M93.932,281.51h31.766c16.571,0,30.052-13.487,30.052-30.064v-8.334c0-16.578-13.482-30.064-30.052-30.064H93.932 c-16.571,0-30.052,13.487-30.052,30.064v8.334C63.88,268.023,77.361,281.51,93.932,281.51z M86.282,243.113 c0-4.225,3.432-7.662,7.65-7.662h31.766c4.218,0,7.65,3.436,7.65,7.662v8.334c0,4.224-3.432,7.662-7.65,7.662H93.932 c-4.218,0-7.65-3.436-7.65-7.662V243.113z"
    ></path>
    <path
      d="M234.068,356.233H69.234c-6.186,0-11.201,5.015-11.201,11.201c0,6.186,5.015,11.201,11.201,11.201h164.835 c6.186,0,11.201-5.015,11.201-11.201C245.269,361.247,240.255,356.233,234.068,356.233z"
    ></path>
    <path
      d="M69.234,338.501h95.299c6.186,0,11.201-5.015,11.201-11.201s-5.015-11.201-11.201-11.201H69.234 c-6.186,0-11.201,5.015-11.201,11.201S63.047,338.501,69.234,338.501z"
    ></path>
    <path
      d="M336.831,311.676c-0.115,0.069-0.164,0.069-0.253,0.016c-6.361-3.799-13.661-5.508-21.148-4.947 c-17.218,1.315-31.086,14.71-32.974,31.843c-0.904,8.148,0.888,16.106,5.183,23.02c6.628,10.661,18.064,17.027,30.593,17.027 c6.506,0,12.88-1.77,18.459-5.12c5.579,3.35,11.959,5.12,18.471,5.12c12.535,0,23.968-6.367,30.583-17.029 c4.28-6.89,6.072-14.839,5.183-22.986c-1.872-17.153-15.74-30.559-32.986-31.876C350.485,306.183,343.167,307.891,336.831,311.676z M368.659,341.051c0.34,3.121-0.33,6.139-1.941,8.733c-0.002,0.002-0.004,0.006-0.006,0.009c-2.499,4.032-6.817,6.439-11.549,6.439 c-2.483,0-4.916-0.685-7.034-1.983c-3.475-2.125-7.454-3.189-11.436-3.189s-7.962,1.063-11.436,3.189 c-2.119,1.297-4.548,1.983-7.024,1.983c-4.732,0-9.056-2.412-11.565-6.448c-1.616-2.602-2.288-5.62-1.943-8.735 c0.699-6.335,6.035-11.481,12.403-11.967c2.842-0.215,5.588,0.422,7.989,1.856c7.141,4.24,16.013,4.238,23.179-0.016 c2.372-1.419,5.13-2.058,7.953-1.841C362.632,329.57,367.968,334.714,368.659,341.051z"
    ></path>
  </g>
</svg>
